<svg xmlns="http://www.w3.org/2000/svg" width="1400" height="900" viewBox="0 0 1400 900">
  <defs>
    <radialGradient id="bg"><stop stop-color="#34414a"/><stop offset="1" stop-color="#11151b"/></radialGradient>
    <filter id="glow"><feGaussianBlur stdDeviation="16"/></filter>
    <pattern id="stone" width="70" height="70" patternUnits="userSpaceOnUse"><path d="M0 8L30 0l40 12v48L35 70 0 58z" fill="none" stroke="#8b94a0" stroke-opacity=".08"/></pattern>
  </defs>
  <rect width="1400" height="900" fill="url(#bg)"/><rect width="1400" height="900" fill="url(#stone)"/>
  <path d="M160 710C340 520 470 570 610 440S920 270 1240 170" fill="none" stroke="#a5a9aa" stroke-opacity=".12" stroke-width="90"/>
  <circle cx="770" cy="385" r="230" fill="#11151a" stroke="#76808a" stroke-opacity=".35" stroke-width="45"/>
  <circle cx="770" cy="385" r="125" fill="#242b32" stroke="#8f99a3" stroke-opacity=".25" stroke-width="20"/>
  <path d="M770 130v510M515 385h510M590 205l360 360M950 205L590 565" stroke="#6c7680" stroke-opacity=".22" stroke-width="18"/>
  <circle cx="770" cy="385" r="42" fill="#765cff" opacity=".45" filter="url(#glow)"/><circle cx="770" cy="385" r="18" fill="#9b8dff"/>
  <g fill="#0b0e12" stroke="#68727d" stroke-opacity=".3" stroke-width="12"><rect x="180" y="150" width="220" height="145" rx="12"/><rect x="1060" y="560" width="180" height="180" rx="12"/><rect x="180" y="610" width="160" height="130" rx="12"/></g>
</svg>
