<svg xmlns="http://www.w3.org/2000/svg" viewBox="0 0 64 64" role="img" aria-label="Apex Realms">
  <defs>
    <linearGradient id="markStroke" x1="8" y1="9" x2="56" y2="55" gradientUnits="userSpaceOnUse">
      <stop stop-color="#f2bf72"/>
      <stop offset=".48" stop-color="#a47cff"/>
      <stop offset="1" stop-color="#55dfff"/>
    </linearGradient>
    <radialGradient id="markCore" cx="50%" cy="50%" r="50%">
      <stop stop-color="#fff"/>
      <stop offset=".22" stop-color="#e5d7ff"/>
      <stop offset=".56" stop-color="#9b78ff"/>
      <stop offset="1" stop-color="#2a1648"/>
    </radialGradient>
    <filter id="softGlow" x="-60%" y="-60%" width="220%" height="220%">
      <feGaussianBlur stdDeviation="2.4" result="blur"/>
      <feMerge>
        <feMergeNode in="blur"/>
        <feMergeNode in="SourceGraphic"/>
      </feMerge>
    </filter>
  </defs>
  <circle cx="32" cy="32" r="30" fill="#080712"/>
  <circle cx="32" cy="32" r="27.5" fill="none" stroke="url(#markStroke)" stroke-width="2.6"/>
  <circle cx="32" cy="32" r="22" fill="none" stroke="#c9b5ff" stroke-opacity=".34" stroke-dasharray="2.2 3.8"/>
  <circle cx="32" cy="32" r="16.5" fill="none" stroke="#f2bf72" stroke-opacity=".38"/>
  <path d="M32 13.5 48 23v18L32 50.5 16 41V23zM16 23l16 10 16-10M32 33v17.5M16 41l16-8 16 8" fill="none" stroke="url(#markStroke)" stroke-width="2.2" stroke-linejoin="round"/>
  <circle cx="32" cy="32" r="8.8" fill="url(#markCore)" stroke="#f0e7ff" stroke-opacity=".82" filter="url(#softGlow)"/>
  <circle cx="32" cy="32" r="3.4" fill="#fff"/>
  <rect x="51" y="29.5" width="4.2" height="4.2" rx=".8" fill="#0f0c18" stroke="#f2bf72" stroke-width="1.1" transform="rotate(45 53.1 31.6)"/>
  <rect x="9" y="29.5" width="4.2" height="4.2" rx=".8" fill="#0f0c18" stroke="#f2bf72" stroke-width="1.1" transform="rotate(45 11.1 31.6)"/>
</svg>
